# xmcd
#
# Track frame offsets: 
#        150
#        20179
#        39556
#        58557
#        75919
#        86632
#        103862
#        116476
#        146396
#        161199
#
# Disc length: 2354 seconds
#
# Revision: 0
# Processed by: cddbd v1.5.2PL0 Copyright (c) Steve Scherf et al.
# Submitted via: ExactAudioCopy v0.99pb4
#
DISCID=7e09300a
DTITLE=Patrick Vining Band - Atlanta Boogie
DYEAR=2009
DGENRE=Blues
TTITLE0=Patrick Vining Band - Everybody Knows
TTITLE1=Patrick Vining Band - Last Night
TTITLE2=Patrick Vining Band - Atlanta Boogie
TTITLE3=Patrick Vining Band - I'm So Glad
TTITLE4=Patrick Vining Band - 30,000 Dollar Millionaire
TTITLE5=Patrick Vining Band - Money's Getting Cheaper
TTITLE6=Patrick Vining Band - Someday
TTITLE7=Patrick Vining Band - Late At Night
TTITLE8=Patrick Vining Band - Many of Clay
TTITLE9=Patrick Vining Band - Last Meal
EXTD=
EXTT0=
EXTT1=
EXTT2=
EXTT3=
EXTT4=
EXTT5=
EXTT6=
EXTT7=
EXTT8=
EXTT9=
PLAYORDER=
